<mxfile host="Electron" modified="2023-06-27T10:13:18.621Z" agent="Mozilla/5.0 (Windows NT 10.0; Win64; x64) AppleWebKit/537.36 (KHTML, like Gecko) draw.io/21.5.0 Chrome/112.0.5615.204 Electron/24.5.1 Safari/537.36" etag="Q_-W10cIPgRXgoElWIca" version="21.5.0" type="device">
  <diagram name="Page-1" id="cCbZGxjI9NFNBkx99rEY">
    <mxGraphModel dx="1434" dy="844" grid="1" gridSize="10" guides="1" tooltips="1" connect="1" arrows="1" fold="1" page="1" pageScale="1" pageWidth="827" pageHeight="1169" math="0" shadow="0">
      <root>
        <mxCell id="0" />
        <mxCell id="1" parent="0" />
        <mxCell id="8Lg8jWKmwITCqj399k3r-6" value="" style="edgeStyle=orthogonalEdgeStyle;rounded=0;orthogonalLoop=1;jettySize=auto;html=1;" edge="1" parent="1" source="8Lg8jWKmwITCqj399k3r-2" target="8Lg8jWKmwITCqj399k3r-5">
          <mxGeometry relative="1" as="geometry" />
        </mxCell>
        <mxCell id="8Lg8jWKmwITCqj399k3r-2" value="Saisir rayon&amp;nbsp;" style="html=1;whiteSpace=wrap;" vertex="1" parent="1">
          <mxGeometry x="344" y="110" width="110" height="50" as="geometry" />
        </mxCell>
        <mxCell id="8Lg8jWKmwITCqj399k3r-8" value="" style="edgeStyle=orthogonalEdgeStyle;rounded=0;orthogonalLoop=1;jettySize=auto;html=1;" edge="1" parent="1" source="8Lg8jWKmwITCqj399k3r-5" target="8Lg8jWKmwITCqj399k3r-7">
          <mxGeometry relative="1" as="geometry" />
        </mxCell>
        <mxCell id="8Lg8jWKmwITCqj399k3r-5" value="Calcul de l&#39;aire&lt;br&gt;4*pi*rayon^2" style="html=1;whiteSpace=wrap;" vertex="1" parent="1">
          <mxGeometry x="344" y="240" width="110" height="50" as="geometry" />
        </mxCell>
        <mxCell id="8Lg8jWKmwITCqj399k3r-15" value="" style="edgeStyle=orthogonalEdgeStyle;rounded=0;orthogonalLoop=1;jettySize=auto;html=1;" edge="1" parent="1" source="8Lg8jWKmwITCqj399k3r-7" target="8Lg8jWKmwITCqj399k3r-14">
          <mxGeometry relative="1" as="geometry" />
        </mxCell>
        <mxCell id="8Lg8jWKmwITCqj399k3r-7" value="calcul du volume&lt;br&gt;4/3*PI*rayon^3" style="html=1;whiteSpace=wrap;" vertex="1" parent="1">
          <mxGeometry x="344" y="370" width="110" height="50" as="geometry" />
        </mxCell>
        <mxCell id="8Lg8jWKmwITCqj399k3r-10" value="" style="ellipse;html=1;shape=startState;fillColor=#000000;strokeColor=#ff0000;" vertex="1" parent="1">
          <mxGeometry x="384" y="10" width="30" height="30" as="geometry" />
        </mxCell>
        <mxCell id="8Lg8jWKmwITCqj399k3r-11" value="" style="edgeStyle=orthogonalEdgeStyle;html=1;verticalAlign=bottom;endArrow=open;endSize=8;strokeColor=#ff0000;rounded=0;" edge="1" source="8Lg8jWKmwITCqj399k3r-10" parent="1">
          <mxGeometry relative="1" as="geometry">
            <mxPoint x="399" y="100" as="targetPoint" />
          </mxGeometry>
        </mxCell>
        <mxCell id="8Lg8jWKmwITCqj399k3r-17" value="" style="edgeStyle=orthogonalEdgeStyle;rounded=0;orthogonalLoop=1;jettySize=auto;html=1;" edge="1" parent="1" source="8Lg8jWKmwITCqj399k3r-14" target="8Lg8jWKmwITCqj399k3r-16">
          <mxGeometry relative="1" as="geometry" />
        </mxCell>
        <mxCell id="8Lg8jWKmwITCqj399k3r-14" value="Afficher Aire" style="whiteSpace=wrap;html=1;" vertex="1" parent="1">
          <mxGeometry x="339" y="495" width="120" height="60" as="geometry" />
        </mxCell>
        <mxCell id="8Lg8jWKmwITCqj399k3r-23" value="" style="edgeStyle=orthogonalEdgeStyle;rounded=0;orthogonalLoop=1;jettySize=auto;html=1;" edge="1" parent="1" source="8Lg8jWKmwITCqj399k3r-16" target="8Lg8jWKmwITCqj399k3r-22">
          <mxGeometry relative="1" as="geometry" />
        </mxCell>
        <mxCell id="8Lg8jWKmwITCqj399k3r-16" value="Afficher volume" style="whiteSpace=wrap;html=1;" vertex="1" parent="1">
          <mxGeometry x="339" y="635" width="120" height="60" as="geometry" />
        </mxCell>
        <mxCell id="8Lg8jWKmwITCqj399k3r-22" value="" style="shape=waypoint;sketch=0;size=6;pointerEvents=1;points=[];fillColor=default;resizable=0;rotatable=0;perimeter=centerPerimeter;snapToPoint=1;" vertex="1" parent="1">
          <mxGeometry x="389" y="795" width="20" height="20" as="geometry" />
        </mxCell>
        <mxCell id="8Lg8jWKmwITCqj399k3r-24" value="" style="ellipse;html=1;shape=endState;fillColor=#000000;strokeColor=#ff0000;" vertex="1" parent="1">
          <mxGeometry x="384" y="790" width="30" height="30" as="geometry" />
        </mxCell>
      </root>
    </mxGraphModel>
  </diagram>
</mxfile>
